<svg width="24" height="24" viewBox="0 0 24 24" fill="none" xmlns="http://www.w3.org/2000/svg">
    <path d="M20 7H4C2.89543 7 2 7.89543 2 9V19C2 20.1046 2.89543 21 4 21H20C21.1046 21 22 20.1046 22 19V9C22 7.89543 21.1046 7 20 7Z" stroke="white" stroke-width="2" stroke-linecap="round" stroke-linejoin="round"/>
    <path d="M12 12C13.6569 12 15 10.6569 15 9C15 7.34315 13.6569 6 12 6C10.3431 6 9 7.34315 9 9C9 10.6569 10.3431 12 12 12Z" stroke="white" stroke-width="2" stroke-linecap="round" stroke-linejoin="round"/>
    <path d="M17 21V19C17 17.9391 16.5786 16.9217 15.8284 16.1716C15.0783 15.4214 14.0609 15 13 15H11C9.93913 15 8.92172 15.4214 8.17157 16.1716C7.42143 16.9217 7 17.9391 7 19V21" stroke="white" stroke-width="2" stroke-linecap="round" stroke-linejoin="round"/>
</svg> 