<svg width="21" height="18" viewBox="0 0 21 18" fill="none" xmlns="http://www.w3.org/2000/svg">
<path fill-rule="evenodd" clip-rule="evenodd" d="M19.95 7.13086V7.41086C20.4453 8.03283 20.646 8.83928 20.5 9.62086L18.42 16.1209C18.0115 17.1795 16.9947 17.8785 15.86 17.8809H3.2C1.71076 17.8486 0.515841 16.6404 0.5 15.1509V3.88086C0.499818 1.82916 2.14848 0.158215 4.2 0.130859H8.5C9.88071 0.130859 11 1.25015 11 2.63086C11 3.18314 11.4477 3.63086 12 3.63086H16.5C18.4134 3.6582 19.9502 5.21722 19.95 7.13086ZM4.2 1.63086C2.95736 1.63086 1.95 2.63822 1.95 3.88086V11.0009L3.02 8.22086C3.41802 7.13964 4.44784 6.42115 5.6 6.42086H17.85C18.023 6.40581 18.197 6.40581 18.37 6.42086C18.0751 5.64421 17.3308 5.13075 16.5 5.13086H12C10.6216 5.12538 9.50548 4.00929 9.5 2.63086C9.5 2.07857 9.05229 1.63086 8.5 1.63086H4.2Z" fill="white"/>
</svg>
