<svg width="19" height="21" viewBox="0 0 19 21" fill="none" xmlns="http://www.w3.org/2000/svg">
<path d="M12.49 0.557388V4.68739C12.49 5.42745 13.0899 6.02739 13.83 6.02739H18C18.2016 6.0231 18.3817 5.90044 18.4596 5.71443C18.5375 5.52843 18.4984 5.31401 18.36 5.16739L13.36 0.167388C13.2149 0.00460035 12.9811 -0.0454217 12.7822 0.0437678C12.5832 0.132957 12.465 0.34079 12.49 0.557388Z" fill="white"/>
<path d="M13.74 7.02739C12.5217 7.01641 11.54 6.02569 11.54 4.80739V0.497388C11.54 0.24886 11.3385 0.0473877 11.09 0.0473877H8.68C6.68625 0.0473877 5.07 1.66364 5.07 3.65739V13.7274C5.07 15.7211 6.68625 17.3374 8.68 17.3374H14.9C16.8954 17.3374 18.5145 15.7228 18.52 13.7274V7.47739C18.5146 7.22725 18.3102 7.02733 18.06 7.02739H13.74Z" fill="white"/>
<path d="M3.83 14.1374C3.82999 16.547 5.78042 18.5019 8.19 18.5074L12.78 18.5174C12.122 19.7454 10.8432 20.5135 9.45 20.5174H3.78C1.69236 20.5174 0 18.825 0 16.7374V7.28739C0 6.28487 0.398249 5.32341 1.10714 4.61452C1.81602 3.90564 2.77748 3.50739 3.78 3.50739H3.89C3.85521 3.69554 3.83515 3.88612 3.83 4.07739V14.1374Z" fill="white"/>
</svg>
