<svg width="25" height="24" viewBox="0 0 25 24" fill="none" xmlns="http://www.w3.org/2000/svg">
<path fill-rule="evenodd" clip-rule="evenodd" d="M18.5025 4H5.50247C3.77409 4.08106 2.43465 5.54105 2.50247 7.27V12.73C2.43465 14.4589 3.77409 15.9189 5.50247 16H9.26247C9.15347 16.6386 8.99295 17.2673 8.78247 17.88L8.44247 18.82C8.34025 19.071 8.36233 19.3555 8.50206 19.5877C8.64179 19.82 8.88281 19.9727 9.15247 20H14.8625C15.1323 19.974 15.3735 19.8208 15.5119 19.5876C15.6502 19.3544 15.669 19.0693 15.5625 18.82L15.2325 17.88C15.0129 17.2701 14.8522 16.6405 14.7525 16H18.5025C20.2308 15.9189 21.5703 14.4589 21.5025 12.73V7.27C21.5703 5.54105 20.2308 4.08106 18.5025 4ZM11.4325 14.08C11.4325 13.6658 11.7683 13.33 12.1825 13.33C12.5967 13.33 12.9325 13.6658 12.9325 14.08C12.9325 14.4942 12.5967 14.83 12.1825 14.83C11.7683 14.83 11.4325 14.4942 11.4325 14.08ZM5.00247 12.47H19.0025V12.5C19.4167 12.5 19.7525 12.1642 19.7525 11.75C19.7525 11.3358 19.4167 11 19.0025 11H5.00247C4.70447 10.9395 4.39944 11.0649 4.23017 11.3175C4.0609 11.5701 4.0609 11.8999 4.23017 12.1525C4.39944 12.4051 4.70447 12.5305 5.00247 12.47Z" fill="white"/>
</svg>
